<?xml version="1.0" standalone="no"?>
<!DOCTYPE svg PUBLIC "-//W3C//DTD SVG 20010904//EN"
 "http://www.w3.org/TR/2001/REC-SVG-20010904/DTD/svg10.dtd">
<svg version="1.0" xmlns="http://www.w3.org/2000/svg"
 width="100.000000pt" height="100.000000pt" viewBox="0 0 100.000000 100.000000"
 preserveAspectRatio="xMidYMid meet">

<g transform="translate(0.000000,100.000000) scale(0.100000,-0.100000)"
fill="#000000" stroke="none">
<path d="M150 680 c0 -25 4 -30 25 -30 l25 0 0 -145 0 -145 209 0 c117 0 211
4 213 9 2 5 40 -13 86 -40 45 -27 85 -49 87 -49 3 0 5 15 5 33 0 30 -6 35 -88
83 l-87 50 0 49 0 49 87 50 c82 48 88 53 88 84 0 17 -2 32 -5 32 -2 0 -42 -22
-87 -49 l-83 -49 -3 49 -3 49 -235 0 -234 0 0 -30z m230 -110 c0 -18 -7 -20
-60 -20 -53 0 -60 2 -60 20 0 18 7 20 60 20 53 0 60 -2 60 -20z"/>
</g>
</svg>
